<svg width="48" height="48" viewBox="0 0 48 48" fill="none" xmlns="http://www.w3.org/2000/svg">
<path d="M11 31C11 29.1144 11 28.1716 11.5858 27.5858C12.1716 27 13.1144 27 15 27H17C18.8856 27 19.8284 27 20.4142 27.5858C21 28.1716 21 29.1144 21 31V33C21 34.8856 21 35.8284 20.4142 36.4142C19.8284 37 18.8856 37 17 37C14.1716 37 12.7574 37 11.8787 36.1213C11 35.2426 11 33.8284 11 31Z" stroke="currentColor" stroke-width="3"/>
<path d="M11 17C11 14.1716 11 12.7574 11.8787 11.8787C12.7574 11 14.1716 11 17 11C18.8856 11 19.8284 11 20.4142 11.5858C21 12.1716 21 13.1144 21 15V17C21 18.8856 21 19.8284 20.4142 20.4142C19.8284 21 18.8856 21 17 21H15C13.1144 21 12.1716 21 11.5858 20.4142C11 19.8284 11 18.8856 11 17Z" stroke="currentColor" stroke-width="3"/>
<path d="M27 31C27 29.1144 27 28.1716 27.5858 27.5858C28.1716 27 29.1144 27 31 27H33C34.8856 27 35.8284 27 36.4142 27.5858C37 28.1716 37 29.1144 37 31C37 33.8284 37 35.2426 36.1213 36.1213C35.2426 37 33.8284 37 31 37C29.1144 37 28.1716 37 27.5858 36.4142C27 35.8284 27 34.8856 27 33V31Z" stroke="currentColor" stroke-width="3"/>
<path d="M27 15C27 13.1144 27 12.1716 27.5858 11.5858C28.1716 11 29.1144 11 31 11C33.8284 11 35.2426 11 36.1213 11.8787C37 12.7574 37 14.1716 37 17C37 18.8856 37 19.8284 36.4142 20.4142C35.8284 21 34.8856 21 33 21H31C29.1144 21 28.1716 21 27.5858 20.4142C27 19.8284 27 18.8856 27 17V15Z" stroke="currentColor" stroke-width="3"/>
<path d="M44 28C44 35.5425 44 39.3137 41.6569 41.6569C39.3137 44 35.5425 44 28 44" stroke="currentColor" stroke-width="3" stroke-linecap="round"/>
<path d="M20 44C12.4575 44 8.68629 44 6.34315 41.6569C4 39.3137 4 35.5425 4 28" stroke="currentColor" stroke-width="3" stroke-linecap="round"/>
<path d="M20 4C12.4575 4 8.68629 4 6.34315 6.34315C4 8.68629 4 12.4575 4 20" stroke="currentColor" stroke-width="3" stroke-linecap="round"/>
<path d="M28 4C35.5425 4 39.3137 4 41.6569 6.34315C44 8.68629 44 12.4575 44 20" stroke="currentColor" stroke-width="3" stroke-linecap="round"/>
</svg>
