<svg width="48" height="48" viewBox="0 0 48 48" fill="none" xmlns="http://www.w3.org/2000/svg">
<path d="M26.0008 43.9988C34.1109 43.9842 38.3578 43.7851 41.0719 41.0711C44.0008 38.1421 44.0008 33.4281 44.0008 24C44.0008 14.5719 44.0008 9.85786 41.0719 6.92893C38.1429 4 33.4289 4 24.0008 4C14.5727 4 9.85866 4 6.92973 6.92893C4.21567 9.643 4.01656 13.8899 4.00195 22" stroke="currentColor" stroke-width="3" stroke-linecap="round"/>
<path d="M24 24L34 14M34 14H26.5M34 14V21.5" stroke="currentColor" stroke-width="3" stroke-linecap="round" stroke-linejoin="round"/>
<path d="M4 36C4 32.2288 4 30.3431 5.17157 29.1716C6.34315 28 8.22876 28 12 28C15.7712 28 17.6569 28 18.8284 29.1716C20 30.3431 20 32.2288 20 36C20 39.7712 20 41.6569 18.8284 42.8284C17.6569 44 15.7712 44 12 44C8.22876 44 6.34315 44 5.17157 42.8284C4 41.6569 4 39.7712 4 36Z" stroke="currentColor" stroke-width="3"/>
</svg>
