<svg width="48" height="48" viewBox="0 0 48 48" fill="none" xmlns="http://www.w3.org/2000/svg">
<path d="M36.3601 16.0787L37.2869 15.1518C38.8226 13.6161 41.3125 13.6161 42.8482 15.1518C44.3839 16.6875 44.3839 19.1774 42.8482 20.7131L41.9213 21.6399M36.3601 16.0787C36.3601 16.0787 36.4759 18.0483 38.2138 19.7862C39.9517 21.5241 41.9213 21.6399 41.9213 21.6399M36.3601 16.0787L27.8388 24.5999C27.2617 25.1771 26.9731 25.4656 26.7249 25.7838C26.4321 26.1592 26.1811 26.5653 25.9763 26.995C25.8027 27.3593 25.6737 27.7465 25.4156 28.5208L24.5892 31L24.3218 31.8021M41.9213 21.6399L33.4001 30.1612C32.8229 30.7383 32.5344 31.0269 32.2162 31.2751C31.8408 31.5679 31.4347 31.8189 31.005 32.0237C30.6407 32.1973 30.2535 32.3263 29.4792 32.5844L27 33.4108L26.1979 33.6782M26.1979 33.6782L25.3958 33.9456C25.0148 34.0726 24.5947 33.9734 24.3106 33.6894C24.0266 33.4053 23.9274 32.9852 24.0544 32.6042L24.3218 31.8021M26.1979 33.6782L24.3218 31.8021" stroke="currentColor" stroke-width="3"/>
<path d="M16 26H21" stroke="currentColor" stroke-width="3" stroke-linecap="round"/>
<path d="M16 18H29" stroke="currentColor" stroke-width="3" stroke-linecap="round"/>
<path d="M16 34H19" stroke="currentColor" stroke-width="3" stroke-linecap="round"/>
<path d="M39.6569 6.34315C37.3137 4 33.5425 4 26 4H22C14.4575 4 10.6863 4 8.34315 6.34315C6 8.68629 6 12.4575 6 20V28C6 35.5425 6 39.3137 8.34315 41.6569C10.6863 44 14.4575 44 22 44H26C33.5425 44 37.3137 44 39.6569 41.6569C41.543 39.7707 41.9109 36.9591 41.9826 32" stroke="currentColor" stroke-width="3" stroke-linecap="round"/>
</svg>
