<svg width="48" height="48" viewBox="0 0 48 48" fill="none" xmlns="http://www.w3.org/2000/svg">
<path d="M40.6285 7.37152L41.6891 6.31086L40.6285 7.37152ZM40.6285 23.6507L41.6891 24.7113L40.6285 23.6507ZM20.9093 20.1139L19.8486 19.0533L19.8486 19.0533L20.9093 20.1139ZM14.7225 26.3007L15.7831 27.3614H15.7831L14.7225 26.3007ZM21.6993 33.2775L20.6386 32.2169L20.6386 32.2169L21.6993 33.2775ZM27.8865 27.0902L26.8259 26.0296L27.8865 27.0902ZM14.0151 28.3173L12.5243 28.483L12.5243 28.483L14.0151 28.3173ZM14.4019 31.7983L12.9111 31.964L12.9111 31.964L14.4019 31.7983ZM16.2017 33.5981L16.036 35.0889L16.036 35.0889L16.2017 33.5981ZM19.6827 33.9849L19.8483 32.4941H19.8483L19.6827 33.9849ZM14.8735 32.7795L15.9341 31.7189L15.9341 31.7188L14.8735 32.7795ZM15.2205 33.1265L14.1598 34.1872L14.1598 34.1872L15.2205 33.1265ZM21.3405 18.3852L19.8877 18.7583L19.8877 18.7583L21.3405 18.3852ZM29.6148 26.6595L29.2417 28.1123H29.2417L29.6148 26.6595ZM21.9063 27.2605C21.3173 26.678 20.3676 26.6832 19.785 27.2722C19.2025 27.8612 19.2077 28.8109 19.7967 29.3935L21.9063 27.2605ZM29.9763 18.0237L31.037 16.963C30.321 16.2471 30.321 15.0863 31.037 14.3703L29.9763 13.3096L28.9156 12.249C27.0281 14.1365 27.0281 17.1968 28.9156 19.0843L29.9763 18.0237ZM34.6904 18.0237L33.6297 16.963C32.9137 17.679 31.7529 17.679 31.037 16.963L29.9763 18.0237L28.9156 19.0843C30.8032 20.9719 33.8635 20.9719 35.751 19.0843L34.6904 18.0237ZM34.6904 13.3096L33.6297 14.3703C34.3457 15.0863 34.3457 16.2471 33.6297 16.963L34.6904 18.0237L35.751 19.0843C37.6385 17.1968 37.6385 14.1365 35.751 12.249L34.6904 13.3096ZM34.6904 13.3096L35.751 12.249C33.8635 10.3614 30.8032 10.3614 28.9156 12.249L29.9763 13.3096L31.037 14.3703C31.7529 13.6543 32.9137 13.6543 33.6297 14.3703L34.6904 13.3096ZM40.6285 7.37152L39.5678 8.43218C43.4774 12.3418 43.4774 18.6804 39.5678 22.59L40.6285 23.6507L41.6891 24.7113C46.7703 19.6302 46.7703 11.392 41.6891 6.31086L40.6285 7.37152ZM40.6285 7.37152L41.6891 6.31086C36.608 1.22971 28.3698 1.22971 23.2887 6.31086L24.3493 7.37152L25.41 8.43218C29.3196 4.52261 35.6582 4.52261 39.5678 8.43218L40.6285 7.37152ZM20.9093 20.1139L19.8486 19.0533L13.6618 25.2401L14.7225 26.3007L15.7831 27.3614L21.97 21.1746L20.9093 20.1139ZM21.6993 33.2775L22.7599 34.3382L24.8273 32.2708L23.7666 31.2102L22.7059 30.1495L20.6386 32.2169L21.6993 33.2775ZM23.7666 31.2102L24.8273 32.2708L28.9472 28.1509L27.8865 27.0902L26.8259 26.0296L22.7059 30.1495L23.7666 31.2102ZM14.0151 28.3173L12.5243 28.483L12.9111 31.964L14.4019 31.7983L15.8927 31.6327L15.5059 28.1517L14.0151 28.3173ZM16.2017 33.5981L16.036 35.0889L19.517 35.4757L19.6827 33.9849L19.8483 32.4941L16.3673 32.1073L16.2017 33.5981ZM14.8735 32.7795L13.8128 33.8402L14.1598 34.1872L15.2205 33.1265L16.2812 32.0659L15.9341 31.7189L14.8735 32.7795ZM16.2017 33.5981L16.3673 32.1073C16.3347 32.1037 16.3043 32.0891 16.2812 32.0659L15.2205 33.1265L14.1598 34.1872C14.6647 34.6921 15.3264 35.0101 16.036 35.0889L16.2017 33.5981ZM14.4019 31.7983L12.9111 31.964C12.9899 32.6736 13.3079 33.3353 13.8128 33.8402L14.8735 32.7795L15.9341 31.7188C15.9109 31.6957 15.8963 31.6653 15.8927 31.6327L14.4019 31.7983ZM21.6993 33.2775L20.6386 32.2169C20.431 32.4245 20.1402 32.5265 19.8483 32.4941L19.6827 33.9849L19.517 35.4757C20.7147 35.6088 21.9079 35.1902 22.7599 34.3382L21.6993 33.2775ZM14.7225 26.3007L13.6618 25.2401C12.8098 26.0921 12.3912 27.2853 12.5243 28.483L14.0151 28.3173L15.5059 28.1517C15.4735 27.8598 15.5755 27.569 15.7831 27.3614L14.7225 26.3007ZM21.3405 18.3852L22.7934 18.0121C21.9408 14.6921 22.8154 11.0268 25.41 8.43218L24.3493 7.37152L23.2887 6.31086C19.9135 9.68602 18.7822 14.4535 19.8877 18.7583L21.3405 18.3852ZM40.6285 23.6507L39.5678 22.59C36.9732 25.1846 33.3079 26.0592 29.9879 25.2066L29.6148 26.6595L29.2417 28.1123C33.5465 29.2178 38.314 28.0865 41.6891 24.7113L40.6285 23.6507ZM27.8865 27.0902L28.9472 28.1509C28.9614 28.1367 28.987 28.1182 29.0363 28.1064C29.0887 28.0939 29.161 28.0916 29.2417 28.1123L29.6148 26.6595L29.9879 25.2066C28.935 24.9362 27.7018 25.1536 26.8259 26.0296L27.8865 27.0902ZM20.9093 20.1139L21.97 21.1746C22.8455 20.2991 23.0639 19.0657 22.7934 18.0121L21.3405 18.3852L19.8877 18.7583C19.9083 18.8386 19.906 18.9108 19.8935 18.9635C19.8816 19.0131 19.8629 19.039 19.8486 19.0533L20.9093 20.1139ZM23.7666 31.2102L24.8214 30.1437L21.9063 27.2605L20.8515 28.327L19.7967 29.3935L22.7118 32.2767L23.7666 31.2102Z" fill="currentColor"/>
<path d="M44 29.9859C43.8722 35.574 43.3384 38.838 41.1083 41.0681C38.1765 44 33.4577 44 24.0201 44C14.5825 44 9.86375 44 6.93188 41.0681C4 38.1362 4 33.4175 4 23.9799C4 14.5423 4 9.82355 6.93188 6.89167C9.16198 4.66156 12.426 4.12777 18.0141 4" stroke="currentColor" stroke-width="3" stroke-linecap="round"/>
</svg>
