<svg width="32" height="32" viewBox="0 0 32 32" fill="none" xmlns="http://www.w3.org/2000/svg">
<path d="M6.66675 11.3529C6.66675 6.55568 10.8454 2.66675 16.0001 2.66675C21.1547 2.66675 25.3334 6.55568 25.3334 11.3529C25.3334 16.1126 22.3545 21.6667 17.7068 23.6528C16.6234 24.1158 15.3768 24.1158 14.2933 23.6528C9.64563 21.6667 6.66675 16.1126 6.66675 11.3529Z" stroke="currentColor" stroke-width="2.16667"/>
<path d="M18.6666 11.9999C18.6666 13.4727 17.4727 14.6666 15.9999 14.6666C14.5272 14.6666 13.3333 13.4727 13.3333 11.9999C13.3333 10.5272 14.5272 9.33325 15.9999 9.33325C17.4727 9.33325 18.6666 10.5272 18.6666 11.9999Z" stroke="currentColor" stroke-width="2.16667"/>
<path d="M27.9475 20.6667C28.8346 21.4701 29.3334 22.3755 29.3334 23.3334C29.3334 26.6471 23.3639 29.3334 16.0001 29.3334C8.63628 29.3334 2.66675 26.6471 2.66675 23.3334C2.66675 22.3755 3.16557 21.4701 4.0527 20.6667" stroke="currentColor" stroke-width="2.16667" stroke-linecap="round"/>
</svg>
