<svg width="48" height="48" viewBox="0 0 48 48" fill="none" xmlns="http://www.w3.org/2000/svg">
<path d="M4 24C4 14.5719 4 9.85786 6.92893 6.92893C9.85786 4 14.5719 4 24 4C33.4281 4 38.1421 4 41.0711 6.92893C44 9.85786 44 14.5719 44 24C44 33.4281 44 38.1421 41.0711 41.0711C38.1421 44 33.4281 44 24 44C14.5719 44 9.85786 44 6.92893 41.0711C4 38.1421 4 33.4281 4 24Z" stroke="currentColor" stroke-width="3"/>
<path d="M14 28L18.5858 23.4142C19.3668 22.6332 20.6332 22.6332 21.4142 23.4142L24.5858 26.5858C25.3668 27.3668 26.6332 27.3668 27.4142 26.5858L34 20M34 20V25M34 20H29" stroke="currentColor" stroke-width="3" stroke-linecap="round" stroke-linejoin="round"/>
</svg>
