<svg width="48" height="48" viewBox="0 0 48 48" fill="none" xmlns="http://www.w3.org/2000/svg">
<circle cx="24" cy="24" r="20" stroke="currentColor" stroke-width="3"/>
<path d="M21.1532 16.4084C22.4198 14.1361 23.0531 13 24 13C24.9469 13 25.5802 14.1361 26.8468 16.4084L27.1745 16.9962C27.5345 17.6419 27.7144 17.9648 27.9951 18.1778C28.2757 18.3908 28.6251 18.4699 29.3241 18.628L29.9605 18.772C32.4201 19.3286 33.65 19.6068 33.9426 20.5477C34.2352 21.4886 33.3968 22.4691 31.7199 24.4299L31.2861 24.9372C30.8096 25.4944 30.5713 25.773 30.4641 26.1177C30.357 26.4624 30.393 26.8341 30.465 27.5776L30.5306 28.2544C30.7841 30.8706 30.9109 32.1787 30.1449 32.7602C29.3788 33.3417 28.2273 32.8115 25.9243 31.7512L25.3285 31.4768C24.6741 31.1755 24.3469 31.0248 24 31.0248C23.6531 31.0248 23.3259 31.1755 22.6715 31.4768L22.0757 31.7512C19.7727 32.8115 18.6212 33.3417 17.8551 32.7602C17.0891 32.1787 17.2159 30.8706 17.4694 28.2544L17.535 27.5776C17.607 26.8341 17.643 26.4624 17.5359 26.1177C17.4287 25.773 17.1904 25.4944 16.7139 24.9372L16.2801 24.4299C14.6032 22.4691 13.7648 21.4886 14.0574 20.5477C14.35 19.6068 15.5799 19.3286 18.0395 18.772L18.6759 18.628C19.3749 18.4699 19.7243 18.3908 20.0049 18.1778C20.2856 17.9648 20.4655 17.6419 20.8255 16.9962L21.1532 16.4084Z" stroke="currentColor" stroke-width="3"/>
</svg>
