<svg width="36" height="43" viewBox="0 0 36 43" fill="none" xmlns="http://www.w3.org/2000/svg">
<path d="M4 11.0981L3.25 12.3971L4 11.0981ZM2.90192 10L1.60289 10.75L2.90192 10ZM26.0981 10L27.3971 10.75L26.0981 10ZM25 11.0981L25.75 12.3971L25 11.0981ZM25 1.90192L25.75 0.602886L25 1.90192ZM26.0981 3L27.3971 2.25L26.0981 3ZM4 1.90192L3.25 0.602886L4 1.90192ZM2.90192 3L1.60289 2.25L2.90192 3ZM17.9142 40.9142L16.8536 39.8536L17.9142 40.9142ZM17.9142 26.0858L16.8536 27.1464L17.9142 26.0858ZM11.0858 26.0858L10.0251 25.0251L11.0858 26.0858ZM11.0858 40.9142L12.1464 39.8536L11.0858 40.9142ZM21.3133 19.478L21.0908 17.9946L21.3133 19.478ZM29.4665 18.255L29.244 16.7716H29.244L29.4665 18.255ZM34.2219 9.03466L35.6177 8.48515V8.48515L34.2219 9.03466ZM31.9653 6.77807L31.4158 8.17379L31.9653 6.77807ZM32.3769 17.5876L31.673 16.263V16.263L32.3769 17.5876ZM34.2717 15.3874L35.686 15.8869L35.686 15.8869L34.2717 15.3874ZM15.469 21.3345L14.3324 20.3557H14.3324L15.469 21.3345ZM14.5094 25.5V27H15.9845L16.0092 25.5251L14.5094 25.5ZM1.5 5C0.671573 5 0 5.67157 0 6.5C0 7.32843 0.671573 8 1.5 8V6.5V5ZM7.5 1.5V3H21.5V1.5V0H7.5V1.5ZM21.5 11.5V10H7.5V11.5V13H21.5V11.5ZM7.5 11.5V10C6.53778 10 5.9164 9.99856 5.44549 9.95588C4.9952 9.91507 4.83173 9.84622 4.75 9.79904L4 11.0981L3.25 12.3971C3.86443 12.7519 4.51633 12.884 5.1747 12.9436C5.81244 13.0014 6.59299 13 7.5 13V11.5ZM2.5 6.5H1C1 7.40701 0.998563 8.18756 1.05636 8.8253C1.11603 9.48366 1.24815 10.1356 1.60289 10.75L2.90192 10L4.20096 9.25C4.15378 9.16827 4.08493 9.0048 4.04412 8.55451C4.00144 8.0836 4 7.46222 4 6.5H2.5ZM4 11.0981L4.75 9.79904C4.52197 9.66739 4.33261 9.47803 4.20096 9.25L2.90192 10L1.60289 10.75C1.99784 11.4341 2.56591 12.0022 3.25 12.3971L4 11.0981ZM26.5 6.5H25C25 7.46222 24.9986 8.0836 24.9559 8.55451C24.9151 9.0048 24.8462 9.16827 24.799 9.25L26.0981 10L27.3971 10.75C27.7519 10.1356 27.884 9.48367 27.9436 8.8253C28.0014 8.18756 28 7.40701 28 6.5H26.5ZM21.5 11.5V13C22.407 13 23.1876 13.0014 23.8253 12.9436C24.4837 12.884 25.1356 12.7519 25.75 12.3971L25 11.0981L24.25 9.79904C24.1683 9.84622 24.0048 9.91507 23.5545 9.95588C23.0836 9.99856 22.4622 10 21.5 10V11.5ZM26.0981 10L24.799 9.25C24.6674 9.47803 24.478 9.66739 24.25 9.79904L25 11.0981L25.75 12.3971C26.4341 12.0022 27.0022 11.4341 27.3971 10.75L26.0981 10ZM21.5 1.5V3C22.4622 3 23.0836 3.00144 23.5545 3.04412C24.0048 3.08493 24.1683 3.15378 24.25 3.20096L25 1.90192L25.75 0.602886C25.1356 0.248147 24.4837 0.116033 23.8253 0.0563636C23.1876 -0.00143707 22.407 0 21.5 0V1.5ZM26.5 6.5H28C28 5.59299 28.0014 4.81244 27.9436 4.1747C27.884 3.51633 27.7519 2.86443 27.3971 2.25L26.0981 3L24.799 3.75C24.8462 3.83173 24.9151 3.9952 24.9559 4.44549C24.9986 4.9164 25 5.53778 25 6.5H26.5ZM25 1.90192L24.25 3.20096C24.478 3.33261 24.6674 3.52197 24.799 3.75L26.0981 3L27.3971 2.25C27.0022 1.56591 26.4341 0.997844 25.75 0.602886L25 1.90192ZM7.5 1.5V0C6.59299 0 5.81244 -0.00143707 5.1747 0.0563636C4.51634 0.116033 3.86443 0.248147 3.25 0.602886L4 1.90192L4.75 3.20096C4.83173 3.15378 4.9952 3.08493 5.44549 3.04412C5.9164 3.00144 6.53778 3 7.5 3V1.5ZM2.5 6.5H4C4 5.53778 4.00144 4.9164 4.04412 4.44549C4.08493 3.9952 4.15378 3.83173 4.20096 3.75L2.90192 3L1.60289 2.25C1.24815 2.86443 1.11603 3.51634 1.05636 4.1747C0.998563 4.81244 1 5.59299 1 6.5H2.5ZM4 1.90192L3.25 0.602886C2.56591 0.997843 1.99784 1.56591 1.60289 2.25L2.90192 3L4.20096 3.75C4.33261 3.52197 4.52197 3.33261 4.75 3.20096L4 1.90192ZM10.5 37.5H12V29.5H10.5H9V37.5H10.5ZM18.5 29.5H17V37.5H18.5H20V29.5H18.5ZM18.5 37.5H17C17 38.4852 16.9968 39.0732 16.9402 39.4947C16.9142 39.6878 16.8836 39.7845 16.8657 39.8281C16.8615 39.8382 16.8583 39.8448 16.8563 39.8487C16.8543 39.8525 16.8532 39.8542 16.8531 39.8543C16.853 39.8545 16.8533 39.854 16.8539 39.8533C16.8544 39.8526 16.8545 39.8526 16.8536 39.8536L17.9142 40.9142L18.9749 41.9749C19.5929 41.3568 19.8178 40.6054 19.9134 39.8944C20.0032 39.2266 20 38.4004 20 37.5H18.5ZM14.5 41.5V43C15.4004 43 16.2266 43.0032 16.8944 42.9134C17.6054 42.8178 18.3568 42.5929 18.9749 41.9749L17.9142 40.9142L16.8536 39.8536C16.8526 39.8545 16.8526 39.8544 16.8533 39.8539C16.854 39.8533 16.8545 39.853 16.8543 39.8531C16.8542 39.8532 16.8525 39.8543 16.8487 39.8563C16.8448 39.8583 16.8382 39.8615 16.8281 39.8657C16.7845 39.8836 16.6878 39.9142 16.4947 39.9402C16.0732 39.9968 15.4852 40 14.5 40V41.5ZM14.5 25.5V27C15.4852 27 16.0732 27.0032 16.4947 27.0598C16.6878 27.0858 16.7845 27.1164 16.8281 27.1343C16.8382 27.1385 16.8448 27.1417 16.8487 27.1437C16.8525 27.1457 16.8542 27.1468 16.8543 27.1469C16.8545 27.147 16.854 27.1467 16.8533 27.1461C16.8526 27.1456 16.8526 27.1455 16.8536 27.1464L17.9142 26.0858L18.9749 25.0251C18.3568 24.4071 17.6054 24.1822 16.8944 24.0866C16.2266 23.9968 15.4004 24 14.5 24V25.5ZM18.5 29.5H20C20 28.5996 20.0032 27.7734 19.9134 27.1056C19.8178 26.3946 19.5929 25.6432 18.9749 25.0251L17.9142 26.0858L16.8536 27.1464C16.8545 27.1474 16.8544 27.1474 16.8539 27.1467C16.8533 27.146 16.853 27.1455 16.8531 27.1457C16.8532 27.1458 16.8543 27.1475 16.8563 27.1513C16.8583 27.1552 16.8615 27.1618 16.8657 27.1719C16.8836 27.2155 16.9142 27.3122 16.9402 27.5053C16.9968 27.9268 17 28.5148 17 29.5H18.5ZM10.5 29.5H12C12 28.5148 12.0032 27.9268 12.0598 27.5053C12.0858 27.3122 12.1164 27.2155 12.1343 27.1719C12.1385 27.1618 12.1417 27.1552 12.1437 27.1513C12.1457 27.1475 12.1468 27.1458 12.1469 27.1457C12.147 27.1455 12.1467 27.146 12.1461 27.1467C12.1456 27.1474 12.1455 27.1474 12.1464 27.1464L11.0858 26.0858L10.0251 25.0251C9.40708 25.6432 9.18218 26.3946 9.0866 27.1056C8.99681 27.7734 9 28.5996 9 29.5H10.5ZM14.5 25.5V24C13.5996 24 12.7734 23.9968 12.1056 24.0866C11.3946 24.1822 10.6432 24.4071 10.0251 25.0251L11.0858 26.0858L12.1464 27.1464C12.1474 27.1455 12.1474 27.1456 12.1467 27.1461C12.146 27.1467 12.1455 27.147 12.1457 27.1469C12.1458 27.1468 12.1475 27.1457 12.1513 27.1437C12.1552 27.1417 12.1618 27.1385 12.1719 27.1343C12.2155 27.1164 12.3122 27.0858 12.5053 27.0598C12.9268 27.0032 13.5148 27 14.5 27V25.5ZM10.5 37.5H9C9 38.4004 8.99681 39.2266 9.0866 39.8944C9.18219 40.6054 9.40708 41.3568 10.0251 41.9749L11.0858 40.9142L12.1464 39.8536C12.1455 39.8526 12.1456 39.8526 12.1461 39.8533C12.1467 39.854 12.147 39.8545 12.1469 39.8543C12.1468 39.8542 12.1457 39.8525 12.1437 39.8487C12.1417 39.8448 12.1385 39.8382 12.1343 39.8281C12.1164 39.7845 12.0858 39.6878 12.0598 39.4947C12.0032 39.0732 12 38.4852 12 37.5H10.5ZM14.5 41.5V40C13.5148 40 12.9268 39.9968 12.5053 39.9402C12.3122 39.9142 12.2155 39.8836 12.1719 39.8657C12.1618 39.8615 12.1552 39.8583 12.1513 39.8563C12.1475 39.8543 12.1458 39.8532 12.1457 39.8531C12.1455 39.853 12.146 39.8533 12.1467 39.8539C12.1474 39.8544 12.1474 39.8545 12.1464 39.8536L11.0858 40.9142L10.0251 41.9749C10.6432 42.5929 11.3946 42.8178 12.1056 42.9134C12.7734 43.0032 13.5996 43 14.5 43V41.5ZM21.3133 19.478L21.5358 20.9614L29.689 19.7384L29.4665 18.255L29.244 16.7716L21.0908 17.9946L21.3133 19.478ZM28.5898 6.5V5H26.5V6.5V8H28.5898V6.5ZM34.5 12.4102H36C36 11.54 36.0007 10.8157 35.9621 10.2224C35.9226 9.61646 35.8375 9.04343 35.6177 8.48515L34.2219 9.03466L32.8262 9.58416C32.8845 9.73217 32.9384 9.95716 32.9684 10.4176C32.9993 10.8906 33 11.5009 33 12.4102H34.5ZM28.5898 6.5V8C29.4991 8 30.1094 8.00074 30.5824 8.03158C31.0428 8.0616 31.2678 8.11552 31.4158 8.17379L31.9653 6.77807L32.5148 5.38234C31.9566 5.16255 31.3835 5.07744 30.7776 5.03794C30.1843 4.99926 29.46 5 28.5898 5V6.5ZM34.2219 9.03466L35.6177 8.48515C35.0586 7.06522 33.9348 5.94138 32.5148 5.38234L31.9653 6.77807L31.4158 8.17379C32.0613 8.4279 32.5721 8.93874 32.8262 9.58416L34.2219 9.03466ZM29.4665 18.255L29.689 19.7384C31.1061 19.5259 32.1921 19.3844 33.0807 18.9122L32.3769 17.5876L31.673 16.263C31.3507 16.4342 30.9001 16.5232 29.244 16.7716L29.4665 18.255ZM34.5 12.4102H33C33 14.0849 32.9788 14.5437 32.8573 14.8878L34.2717 15.3874L35.686 15.8869C36.0212 14.9381 36 13.8431 36 12.4102H34.5ZM32.3769 17.5876L33.0807 18.9122C34.2974 18.2657 35.2272 17.1861 35.686 15.8869L34.2717 15.3874L32.8573 14.8878C32.6487 15.4784 32.2261 15.9691 31.673 16.263L32.3769 17.5876ZM21.3133 19.478L21.0908 17.9946C19.5042 18.2326 18.1753 18.4291 17.1297 18.7231C16.0436 19.0285 15.0825 19.4847 14.3324 20.3557L15.469 21.3345L16.6056 22.3134C16.8246 22.0592 17.1606 21.8308 17.9418 21.6111C18.7635 21.3801 19.8722 21.2109 21.5358 20.9614L21.3133 19.478ZM14.5094 25.5L16.0092 25.5251C16.0448 23.3939 16.2426 22.7349 16.6057 22.3134L15.469 21.3345L14.3324 20.3557C13.1708 21.7046 13.0433 23.4574 13.0096 25.4749L14.5094 25.5ZM14.5 25.5V27H14.5094V25.5V24H14.5V25.5ZM2.5 6.5V5H1.5V6.5V8H2.5V6.5Z" fill="currentColor"/>
</svg>
