<svg width="30" height="30" viewBox="0 0 30 30" fill="none" xmlns="http://www.w3.org/2000/svg">
  <path d="M29.2858 15.0001C29.2858 7.1103 22.8898 0.714355 15.0001 0.714355C7.1103 0.714355 0.714355 7.1103 0.714355 15.0001C0.714355 21.6998 5.32664 27.3213 11.549 28.8651V19.3656H8.60316V15.0001H11.549V13.119C11.549 8.25658 13.7494 6.00287 18.5232 6.00287C19.4282 6.00287 20.9898 6.1803 21.6287 6.35778V10.3152C21.2915 10.2797 20.7059 10.2619 19.9783 10.2619C17.6358 10.2619 16.7308 11.1492 16.7308 13.4562V15.0001H21.397L20.5954 19.3656H16.7308V29.1812C23.8042 28.3268 29.2858 22.304 29.2858 15.0001Z" fill="currentColor"/>
  </svg>
