<svg width="48" height="48" viewBox="0 0 48 48" fill="none" xmlns="http://www.w3.org/2000/svg">
<path d="M13.4255 21.3472C14.3345 16.3098 18.7708 12.5 24.0874 12.5C27.2424 12.5 30.0863 13.8418 32.0656 15.9814C32.6281 16.5895 32.5912 17.5385 31.9831 18.1011C31.3749 18.6637 30.4259 18.6267 29.8634 18.0186C28.4309 16.4701 26.3757 15.5 24.0874 15.5C20.4112 15.5 17.3395 18.0042 16.489 21.3706L16.9619 20.9173C17.5599 20.3439 18.5094 20.3639 19.0827 20.9619C19.6561 21.5599 19.6361 22.5094 19.0381 23.0827L15.7932 26.1939C15.4986 26.4763 15.1017 26.6265 14.6939 26.6099C14.2861 26.5932 13.9027 26.4111 13.6322 26.1056L10.877 22.9945C10.3278 22.3743 10.3853 21.4263 11.0055 20.877C11.6257 20.3278 12.5737 20.3853 13.123 21.0055L13.4255 21.3472Z" fill="currentColor"/>
<path d="M33.2969 21.3918C33.7046 21.408 34.088 21.5894 34.3589 21.8944L37.1214 25.0037C37.6716 25.6231 37.6156 26.5712 36.9963 27.1214C36.3769 27.6716 35.4288 27.6156 34.8786 26.9963L34.5681 26.6467C33.6591 31.6915 29.2022 35.5017 23.8696 35.5017C20.727 35.5017 17.8909 34.179 15.9062 32.0644C15.3393 31.4603 15.3694 30.511 15.9735 29.9441C16.5776 29.3772 17.5268 29.4073 18.0938 30.0114C19.5309 31.5427 21.5839 32.5017 23.8696 32.5017C27.5637 32.5017 30.644 29.9982 31.5005 26.6386L31.039 27.0819C30.4415 27.6557 29.492 27.6365 28.9181 27.039C28.3443 26.4415 28.3635 25.492 28.961 24.9181L32.1985 21.8088C32.4927 21.5262 32.8893 21.3757 33.2969 21.3918Z" fill="currentColor"/>
<path fill-rule="evenodd" clip-rule="evenodd" d="M23.8852 2.5C19.2685 2.49997 15.6504 2.49995 12.8274 2.87949C9.93794 3.26797 7.65789 4.07865 5.86827 5.86827C4.07865 7.65789 3.26797 9.93794 2.87949 12.8274C2.49995 15.6504 2.49997 19.2685 2.5 23.8852V24.1148C2.49997 28.7315 2.49995 32.3496 2.87949 35.1726C3.26797 38.0621 4.07865 40.3421 5.86827 42.1317C7.65789 43.9213 9.93794 44.732 12.8274 45.1205C15.6504 45.5 19.2685 45.5 23.8853 45.5H24.1147C28.7315 45.5 32.3496 45.5 35.1726 45.1205C38.0621 44.732 40.3421 43.9213 42.1317 42.1317C43.9213 40.3421 44.732 38.0621 45.1205 35.1726C45.5 32.3496 45.5 28.7315 45.5 24.1147V23.8853C45.5 19.2685 45.5 15.6504 45.1205 12.8274C44.732 9.93794 43.9213 7.65789 42.1317 5.86827C40.3421 4.07865 38.0621 3.26797 35.1726 2.87949C32.3496 2.49995 28.7315 2.49997 24.1148 2.5H23.8852ZM7.98959 7.98959C9.12891 6.85028 10.6703 6.1965 13.2272 5.85274C15.8271 5.50319 19.2435 5.5 24 5.5C28.7565 5.5 32.1729 5.50319 34.7728 5.85274C37.3297 6.1965 38.8711 6.85028 40.0104 7.98959C41.1497 9.12891 41.8035 10.6703 42.1473 13.2272C42.4968 15.8271 42.5 19.2436 42.5 24C42.5 28.7565 42.4968 32.1729 42.1473 34.7728C41.8035 37.3297 41.1497 38.8711 40.0104 40.0104C38.8711 41.1497 37.3297 41.8035 34.7728 42.1473C32.1729 42.4968 28.7565 42.5 24 42.5C19.2435 42.5 15.8271 42.4968 13.2272 42.1473C10.6703 41.8035 9.12891 41.1497 7.98959 40.0104C6.85028 38.8711 6.1965 37.3297 5.85274 34.7728C5.50319 32.1729 5.5 28.7565 5.5 24C5.5 19.2436 5.50319 15.8271 5.85274 13.2272C6.1965 10.6703 6.85028 9.12891 7.98959 7.98959Z" fill="currentColor"/>
</svg>
