<svg width="90" height="66" viewBox="0 0 90 66" fill="none" xmlns="http://www.w3.org/2000/svg">
  <path d="M10.8281 48.0762C11.7471 48.0762 12.5283 48.2419 13.165 48.5674C13.8016 48.8987 14.3122 49.3663 14.6846 49.9697L13.333 51.2715C13.0147 50.7981 12.6481 50.4369 12.2217 50.1943C11.7953 49.9459 11.3267 49.8223 10.8223 49.8223C10.4499 49.8223 10.1249 49.8749 9.84863 49.9814C9.56651 50.0879 9.35044 50.2365 9.19434 50.4316C9.0443 50.6268 8.96582 50.852 8.96582 51.1182C8.96589 51.3191 9.0086 51.4966 9.09863 51.6621C9.18873 51.8218 9.32101 51.9637 9.49512 52.0879C9.66919 52.212 9.89113 52.3243 10.1611 52.4189C10.4314 52.5077 10.7442 52.5911 11.0986 52.6621C11.6749 52.7804 12.1913 52.9338 12.6416 53.123C13.0981 53.3124 13.4833 53.5375 13.8076 53.7979C14.1259 54.0641 14.3659 54.3601 14.54 54.6973C14.7082 55.0286 14.792 55.4014 14.792 55.8037C14.792 56.5078 14.6245 57.118 14.2881 57.6328C13.9457 58.1415 13.4709 58.5315 12.8584 58.8096C12.2458 59.0817 11.5251 59.2177 10.6963 59.2178C9.73524 59.2178 8.90604 59.0406 8.19727 58.6797C7.4945 58.3247 6.88736 57.7978 6.38281 57.0996L7.69824 55.626C8.21478 56.3301 8.71369 56.8217 9.2002 57.082C9.68673 57.3483 10.2399 57.4785 10.8525 57.4785C11.2128 57.4785 11.5368 57.4248 11.8311 57.3184C12.1193 57.2119 12.3475 57.0642 12.5156 56.875C12.6838 56.6857 12.7686 56.4663 12.7686 56.2119C12.7685 56.0405 12.7379 55.8753 12.666 55.7275C12.5999 55.5737 12.5042 55.4426 12.3721 55.3184C12.2339 55.2 12.0711 55.0879 11.8789 54.9873C11.6809 54.8868 11.459 54.7976 11.207 54.7207C10.9548 54.6497 10.6716 54.5855 10.3652 54.5264C9.78889 54.414 9.28471 54.2596 8.8584 54.0703C8.432 53.8751 8.07735 53.6443 7.78906 53.3662C7.50075 53.0822 7.28464 52.7622 7.14648 52.4072C7.00838 52.0463 6.94141 51.644 6.94141 51.1943C6.94145 50.585 7.1165 50.0465 7.46484 49.5791C7.8132 49.1118 8.28159 48.7447 8.87012 48.4785C9.45871 48.2123 10.1134 48.0762 10.8281 48.0762ZM25.8145 50.751C26.361 50.751 26.8714 50.8515 27.3398 51.0586C27.8023 51.2598 28.2113 51.5376 28.5537 51.8926C28.8961 52.2535 29.1595 52.674 29.3457 53.1592C29.5319 53.6444 29.6164 54.177 29.6104 54.7568L29.5928 55.4316H23.4912C23.5399 55.7537 23.6371 56.0449 23.79 56.3066C24.0122 56.6971 24.3366 56.9989 24.751 57.2119C25.1654 57.4249 25.6525 57.5312 26.2051 57.5312C26.5892 57.5312 26.9493 57.4727 27.2734 57.3486C27.6038 57.2244 27.9526 57.0051 28.3311 56.6855L29.2676 57.9814C28.9914 58.2357 28.6737 58.4553 28.3135 58.6387C27.9531 58.8221 27.5742 58.9639 27.1777 59.0645C26.7815 59.165 26.3911 59.2177 26.0068 59.2178C25.1359 59.2178 24.3668 59.0405 23.7061 58.6855C23.0393 58.3246 22.5287 57.8391 22.1562 57.2178C21.784 56.5907 21.5977 55.8808 21.5977 55.0703C21.5977 54.4373 21.706 53.8517 21.9102 53.3252C22.1204 52.7986 22.4147 52.3485 22.7871 51.9639C23.1594 51.5794 23.6037 51.2774 24.1201 51.0703C24.6427 50.8573 25.2018 50.751 25.8145 50.751ZM79.9033 50.7627C80.3118 50.7627 80.715 50.8164 81.1055 50.917C81.4957 51.0235 81.862 51.1652 82.1982 51.3604C82.5286 51.5497 82.8174 51.7806 83.0576 52.0469L82 53.2002C81.8078 53.0109 81.5916 52.8451 81.3574 52.6973C81.1232 52.5553 80.8828 52.4373 80.6426 52.3545C80.4023 52.2717 80.1798 52.2305 79.9756 52.2305C79.7835 52.2305 79.6034 52.2477 79.4473 52.2832C79.2851 52.3187 79.153 52.3723 79.0449 52.4492C78.9428 52.5202 78.8587 52.6152 78.8047 52.7217C78.7507 52.8281 78.7207 52.952 78.7207 53.082C78.7267 53.2122 78.7623 53.3251 78.8164 53.4375C78.8764 53.5438 78.9546 53.638 79.0625 53.7148C79.1706 53.7858 79.3391 53.8693 79.5674 53.958C79.8016 54.0467 80.0957 54.1359 80.4619 54.2246C80.9785 54.3607 81.4057 54.5082 81.748 54.668C82.0903 54.8336 82.3603 55.0234 82.5645 55.2305C82.7626 55.4198 82.9013 55.6383 82.9854 55.8867C83.0634 56.1351 83.1054 56.4132 83.1055 56.7148C83.1055 57.2 82.9667 57.6262 82.6904 58.0049C82.4141 58.3836 82.0419 58.6854 81.5674 58.8984C81.0989 59.1115 80.5642 59.2178 79.9756 59.2178C79.2489 59.2178 78.6 59.1 78.0234 58.8574C77.4408 58.6148 76.973 58.2652 76.6006 57.8096L77.8438 56.7627C78.162 57.1057 78.5103 57.3599 78.8945 57.5137C79.279 57.6675 79.6876 57.7451 80.1201 57.7451C80.2882 57.7451 80.4448 57.727 80.5889 57.6855C80.7328 57.6441 80.8589 57.5847 80.9609 57.502C81.069 57.4251 81.153 57.3242 81.207 57.2178C81.2609 57.1055 81.291 56.9815 81.291 56.8457C81.291 56.5972 81.1951 56.4018 81.0029 56.2539C80.9069 56.1888 80.7446 56.118 80.5225 56.0352C80.3002 55.9464 80.0116 55.8632 79.6572 55.7744C79.0928 55.6265 78.6184 55.4608 78.2461 55.2715C77.8677 55.0821 77.5668 54.8695 77.3506 54.6328C77.1764 54.4317 77.0509 54.2123 76.9668 53.9697C76.8767 53.7271 76.834 53.455 76.834 53.1592C76.834 52.6917 76.9727 52.277 77.249 51.916C77.5313 51.5553 77.898 51.2714 78.3604 51.0703C78.8227 50.8634 79.339 50.7627 79.9033 50.7627ZM41.1797 50.7627C41.3595 50.7627 41.5276 50.7801 41.6895 50.8037C41.8516 50.8333 41.9847 50.8756 42.0928 50.917L41.5879 52.9814C41.4618 52.9223 41.3175 52.8753 41.1553 52.8398C40.9872 52.7985 40.8252 52.7803 40.6572 52.7803C40.393 52.7803 40.1405 52.8282 39.9062 52.9287C39.672 53.0234 39.4673 53.1594 39.2871 53.3369C39.113 53.5085 38.9751 53.7156 38.873 53.9463C38.771 54.1828 38.7168 54.4369 38.7168 54.7148V59.0645H36.7891V50.9346H38.6689L38.6914 52.3506C38.7912 52.1697 38.9105 51.9976 39.0469 51.834C39.3232 51.5026 39.6541 51.2421 40.0205 51.0527C40.3928 50.8576 40.7773 50.7627 41.1797 50.7627ZM52.2021 56.2402L54.0273 52.165H55.1621L57 56.1904L58.6885 50.9346H60.6582L57.8652 59.0645H56.5078L54.54 54.5469L52.6699 59.0645H51.3184L48.5371 50.9346L50.5068 50.9229L52.2021 56.2402ZM69.5186 59.0645H67.6025V50.9346H69.5186V59.0645ZM25.8262 52.4258C25.3097 52.4258 24.8768 52.5196 24.5225 52.7148C24.1741 52.9101 23.9038 53.1888 23.7236 53.5615C23.6416 53.7312 23.5798 53.9185 23.5352 54.123H27.7305V54.041C27.7064 53.7274 27.604 53.4487 27.4238 53.2061C27.2437 52.9637 27.0154 52.7747 26.7393 52.6387C26.463 52.4967 26.1565 52.4258 25.8262 52.4258ZM68.5449 47.0117C68.9293 47.0117 69.2242 47.1056 69.4404 47.2949C69.6566 47.4842 69.7587 47.7565 69.7588 48.1055C69.7588 48.4307 69.6506 48.6914 69.4346 48.8984C69.2183 49.0996 68.9173 49.2002 68.5449 49.2002C68.1549 49.2002 67.8548 49.106 67.6387 48.917C67.4284 48.7217 67.3203 48.4546 67.3203 48.1055C67.3204 47.7802 67.4284 47.5136 67.6445 47.3125C67.8667 47.1116 68.1668 47.0118 68.5449 47.0117ZM83.3457 20.1611L80.8896 20.8564V33.8584C80.8896 39.2954 78.6249 41.8835 74.9561 42.0146C72.9437 42.0858 69.945 41.9112 66.292 39.835C66.3065 39.8046 68.1714 35.9061 68.2217 35.9277C69.4519 36.4748 71.4642 37.2295 72.2637 37.2139C73.4807 37.1913 74.2685 36.6003 74.2686 33.4561L74.2754 20.1787H68.7324L67.792 15.8389H83.3457V20.1611ZM23.5977 26.9824L27.8486 15.8389H40.1943V20.1611L37.8379 20.748V36.375L40.1943 36.9619V41.2842H29.2363L29.2803 36.9619L31.8027 36.375V20.1582H31.4707L25.4805 37.5918H21.6729L15.6104 20.1582H15.249V36.375L17.8369 36.9619V41.2842H6.80859V36.9619L9.19922 36.375V20.748L6.80859 20.1611V15.8389H19.8984L23.5977 26.9824ZM54.6592 15.8389C58.0983 15.8389 60.6563 16.3903 62.3311 17.4932C64.0056 18.5969 64.8427 20.2676 64.8428 22.5078C64.8428 24.973 63.6411 26.7236 61.2402 27.7588C62.7844 28.3328 63.9344 29.1245 64.6904 30.1318C65.4464 31.1391 65.8242 32.3802 65.8242 33.8555C65.8242 38.8079 62.102 41.2842 54.6592 41.2842H42.9619V36.9619L45.9639 36.375V20.748L42.9619 20.1611V15.8389H54.6592ZM52.5781 36.9619H55.1836C56.3563 36.9619 57.289 36.6976 57.9824 36.168C58.6766 35.6392 59.0234 34.8065 59.0234 33.6699C59.0234 32.4316 58.6652 31.542 57.9492 31.001C57.2332 30.4609 56.0006 30.1904 54.2529 30.1904H52.5781V36.9619ZM52.5781 25.9014H54.625C55.8317 25.9014 56.7343 25.6719 57.332 25.21C57.9297 24.7488 58.2275 23.9598 58.2275 22.8457C58.2275 21.8549 57.8703 21.1602 57.1543 20.7607C56.4383 20.3613 55.4318 20.1612 54.1348 20.1611H52.5781V25.9014ZM83.3457 11.1436H6.80859V6.79395H83.3457V11.1436Z" fill="currentColor"/>
</svg>
