<svg width="90" height="48" viewBox="0 0 90 48" fill="none" xmlns="http://www.w3.org/2000/svg">
  <path d="M80.7526 20.7953V33.7593C80.7526 39.1803 78.4918 41.7604 74.8292 41.8912C72.8203 41.9622 69.8265 41.7881 66.1795 39.7179C66.1795 39.7179 68.0556 35.8001 68.1059 35.8217C69.334 36.3672 71.3429 37.1205 72.1411 37.1049C73.3562 37.0824 74.1422 36.4927 74.1422 33.3576L74.1491 20.12H68.6157L67.6769 15.7926H83.2045V20.1018L80.7526 20.7953ZM64.7325 22.4421C64.7325 24.9002 63.5331 26.6457 61.136 27.6778C62.6776 28.2501 63.8258 29.0389 64.5805 30.0432C65.3353 31.0476 65.7123 32.2848 65.7123 33.7559C65.7123 38.6937 61.9967 41.163 54.5664 41.163H42.889V36.8529L45.8863 36.2676V20.6871L42.889 20.1018V15.7926H54.5664C57.9997 15.7926 60.5532 16.3424 62.2251 17.442C63.897 18.5425 64.7325 20.2083 64.7325 22.4421ZM27.8009 15.7926H40.1262V20.1018L37.7734 20.6871V36.2676L40.1262 36.8529V41.163H29.1871L29.2305 36.8529L31.7484 36.2676V20.0992H31.4175L25.4368 37.4815H21.6361L15.5842 20.0992H15.2229V36.2676L17.8067 36.8529V41.163H6.79639V36.8529L9.1831 36.2676V20.6871L6.79639 20.1018V15.7926H19.8643L23.5573 26.9037L27.8009 15.7926ZM58.923 33.5706C58.923 32.3359 58.566 31.4493 57.8512 30.9099C57.1364 30.3714 55.9057 30.1021 54.1608 30.1021H52.4889V36.8529H55.0901C56.2609 36.8529 57.192 36.5897 57.8842 36.0616C58.5773 35.5343 58.923 34.7039 58.923 33.5706ZM58.1291 22.779C58.1291 21.791 57.7722 21.0984 57.0574 20.7001C56.3426 20.3018 55.3376 20.1018 54.0427 20.1018H52.4889V25.8258H54.5325C55.7372 25.8258 56.6378 25.5963 57.2345 25.1357C57.8312 24.676 58.1291 23.8898 58.1291 22.779ZM83.2045 6.77505H6.79639V11.1111H83.2045V6.77505Z" fill="currentColor"/>
</svg>
