<svg xmlns="http://www.w3.org/2000/svg" version="1.1" xmlns:xlink="http://www.w3.org/1999/xlink" width="100" height="100"><svg width="100" height="100" viewBox="0 0 100 100" fill="none" xmlns="http://www.w3.org/2000/svg">
<rect width="100" height="100" fill="#342B2D"></rect>
<g clip-path="url(#clip0_102_498)">
<path d="M89.7251 43.3948V57.9792C89.7251 64.0778 87.2131 66.9805 83.1435 67.1276C80.9114 67.2074 77.585 67.0116 73.5328 64.6827C73.5328 64.6827 75.6173 60.2751 75.6732 60.2994C77.0378 60.9131 79.2699 61.7605 80.1568 61.743C81.5069 61.7177 82.3802 61.0543 82.3802 57.5273L82.3879 42.635H76.2397L75.1965 37.7667H92.4494V42.6145L89.7251 43.3948ZM71.925 45.2474C71.925 48.0127 70.5923 49.9764 67.9289 51.1375C69.6418 51.7813 70.9175 52.6687 71.7561 53.7986C72.5948 54.9285 73.0136 56.3205 73.0136 57.9754C73.0136 63.5304 68.8852 66.3084 60.6293 66.3084H47.6544V61.4595L50.9848 60.8011V43.273L47.6544 42.6145V37.7667H60.6293C64.4441 37.7667 67.2813 38.3852 69.139 39.6223C70.9967 40.8603 71.925 42.7343 71.925 45.2474ZM30.8899 37.7667H44.5847V42.6145L41.9704 43.273V60.8011L44.5847 61.4595V66.3084H32.4301L32.4783 61.4595L35.276 60.8011V42.6116H34.9083L28.2631 62.1667H24.0401L17.3157 42.6116H16.9143V60.8011L19.7852 61.4595V66.3084H7.55151V61.4595L10.2034 60.8011V43.273L7.55151 42.6145V37.7667H22.0714L26.1747 50.2667L30.8899 37.7667ZM65.4699 57.7669C65.4699 56.3779 65.0733 55.3805 64.2791 54.7736C63.4848 54.1678 62.1174 53.8648 60.1787 53.8648H58.321V61.4595H61.2112C62.5121 61.4595 63.5466 61.1634 64.3158 60.5693C65.0859 59.9761 65.4699 59.0419 65.4699 57.7669ZM64.5879 45.6263C64.5879 44.5149 64.1913 43.7357 63.3971 43.2876C62.6028 42.8396 61.4863 42.6145 60.0474 42.6145H58.321V49.054H60.5917C61.9302 49.054 62.9309 48.7959 63.5939 48.2777C64.2569 47.7605 64.5879 46.876 64.5879 45.6263ZM92.4494 27.6219H7.55151V32.5H92.4494V27.6219Z" fill="#FDFCF2"></path>
</g>
<defs>
<clipPath id="SvgjsClipPath1001">
<rect width="100" height="54" fill="white" transform="translate(0 20)"></rect>
</clipPath>
</defs>
</svg><style>@media (prefers-color-scheme: light) { :root { filter: none; } }
@media (prefers-color-scheme: dark) { :root { filter: none; } }
</style></svg>