<svg xmlns="http://www.w3.org/2000/svg" version="1.1" xmlns:xlink="http://www.w3.org/1999/xlink" width="100" height="100"><svg width="100" height="100" viewBox="0 0 100 100" fill="none" xmlns="http://www.w3.org/2000/svg">
<rect width="100" height="100" fill="#FFFB00"></rect>
<g clip-path="url(#clip0_102_505)">
<path d="M89.8774 36.3844V50.9629C89.8774 57.059 87.3612 59.9605 83.2847 60.1075C81.0488 60.1874 77.7167 59.9917 73.6577 57.6636C73.6577 57.6636 75.7457 53.2578 75.8018 53.2822C77.1686 53.8956 79.4045 54.7427 80.2929 54.7252C81.6453 54.6998 82.5201 54.0368 82.5201 50.5112L82.5278 35.625H76.3692L75.3242 30.7586H92.6063V35.6045L89.8774 36.3844ZM72.0472 38.2363C72.0472 41.0005 70.7123 42.9634 68.0443 44.124C69.7601 44.7676 71.038 45.6546 71.878 46.784C72.7181 47.9135 73.1376 49.3048 73.1376 50.9591C73.1376 56.5118 69.0022 59.2887 60.7324 59.2887H47.7355V54.4418L51.0715 53.7836V36.2627L47.7355 35.6045V30.7586H60.7324C64.5536 30.7586 67.3956 31.3769 69.2565 32.6134C71.1173 33.8509 72.0472 35.7243 72.0472 38.2363ZM30.9425 30.7586H44.6605V35.6045L42.0418 36.2627V53.7836L44.6605 54.4418V59.2887H32.4853L32.5337 54.4418L35.336 53.7836V35.6016H34.9677L28.3112 55.1487H24.0811L17.3453 35.6016H16.9432V53.7836L19.819 54.4418V59.2887H7.56458V54.4418L10.221 53.7836V36.2627L7.56458 35.6045V30.7586H22.1091L26.2194 43.2535L30.9425 30.7586ZM65.5812 50.7507C65.5812 49.3623 65.1839 48.3652 64.3883 47.7586C63.5927 47.153 62.223 46.8502 60.2809 46.8502H58.4201V54.4418H61.3152C62.6183 54.4418 63.6546 54.1458 64.4251 53.5519C65.1965 52.9589 65.5812 52.0252 65.5812 50.7507ZM64.6976 38.6151C64.6976 37.5041 64.3004 36.7252 63.5048 36.2773C62.7092 35.8294 61.5907 35.6045 60.1494 35.6045H58.4201V42.0413H60.6946C62.0354 42.0413 63.0378 41.7833 63.7019 41.2653C64.366 40.7483 64.6976 39.8643 64.6976 38.6151ZM92.6063 20.618H7.56458V25.4941H92.6063V20.618Z" fill="#2B2D2F"></path>
<path d="M11.8844 79.396C10.8165 79.396 9.8956 79.197 9.10807 78.7923C8.32722 78.3943 7.65314 77.8037 7.09253 77.0209L8.55408 75.369C9.12804 76.1585 9.68198 76.7091 10.2226 77.001C10.7632 77.2995 11.3772 77.4456 12.0579 77.4456C12.4583 77.4456 12.8187 77.3859 13.1458 77.2664C13.4661 77.147 13.7197 76.9812 13.9066 76.7689C14.0935 76.5566 14.1869 76.311 14.1869 76.0258C14.1869 75.8334 14.1535 75.6477 14.0734 75.4819C14 75.3094 13.8933 75.1633 13.7464 75.024C13.5929 74.8913 13.4128 74.7654 13.1992 74.6526C12.979 74.5398 12.732 74.4402 12.4517 74.3539C12.1714 74.2743 11.8577 74.2014 11.5174 74.1351C10.8767 74.0091 10.316 73.8365 9.84219 73.6243C9.36834 73.4053 8.97456 73.1466 8.65421 72.8348C8.33386 72.5164 8.09363 72.158 7.94013 71.76C7.78663 71.3553 7.71316 70.9041 7.71316 70.3999C7.71316 69.7166 7.9067 69.1129 8.29379 68.5888C8.68088 68.0647 9.2015 67.6535 9.85555 67.3549C10.5096 67.0564 11.2371 66.9037 12.0313 66.9037C13.0524 66.9037 13.9199 67.0895 14.6274 67.4544C15.3348 67.8259 15.9021 68.3501 16.3159 69.0268L14.8142 70.4863C14.4605 69.9555 14.0534 69.5508 13.5796 69.2788C13.1057 69.0002 12.5852 68.8609 12.0246 68.8609C11.6108 68.8609 11.2504 68.9205 10.9434 69.0399C10.6297 69.1593 10.3894 69.3252 10.2159 69.5441C10.049 69.763 9.96228 70.0152 9.96228 70.3138C9.96228 70.5393 10.0091 70.7383 10.1092 70.9241C10.2093 71.1032 10.356 71.2624 10.5496 71.4017C10.7431 71.541 10.9901 71.6671 11.2904 71.7733C11.5907 71.8728 11.9378 71.9656 12.3316 72.0452C12.9723 72.1779 13.5462 72.3504 14.0467 72.5627C14.5539 72.775 14.9811 73.0272 15.3415 73.3191C15.6952 73.6176 15.9622 73.9494 16.1557 74.3275C16.3426 74.699 16.436 75.1169 16.436 75.568C16.436 76.3575 16.2492 77.0409 15.8755 77.6181C15.495 78.1886 14.9678 78.6265 14.2871 78.9383C13.6063 79.2435 12.8054 79.396 11.8844 79.396Z" fill="#2B2D2F"></path>
<path d="M28.8963 79.396C27.9286 79.396 27.0744 79.197 26.3402 78.799C25.5994 78.3943 25.0322 77.8503 24.6184 77.1537C24.2046 76.4505 23.9977 75.6543 23.9977 74.7454C23.9977 74.0355 24.1178 73.3788 24.3447 72.7883C24.5783 72.1979 24.9053 71.6936 25.3191 71.2624C25.7329 70.8312 26.2268 70.4928 26.8008 70.2606C27.3814 70.0218 28.0021 69.9024 28.6828 69.9024C29.2901 69.9024 29.8574 70.0152 30.378 70.2474C30.8919 70.4729 31.3457 70.7848 31.7262 71.1829C32.1066 71.5876 32.4002 72.0585 32.6071 72.6026C32.814 73.1466 32.9074 73.7436 32.9007 74.3938L32.8807 75.1502H25.4526L25.0522 73.6839H31.0854L30.8118 73.9825V73.591C30.7851 73.2394 30.6717 72.9277 30.4715 72.6557C30.2712 72.3837 30.0176 72.1712 29.7106 72.0187C29.4036 71.8594 29.0632 71.7799 28.6962 71.7799C28.1222 71.7799 27.6417 71.8861 27.2479 72.105C26.8608 72.3239 26.5605 72.6357 26.3603 73.0536C26.1601 73.4716 26.0599 73.9825 26.0599 74.5928C26.0599 75.1833 26.1801 75.6941 26.4337 76.132C26.6806 76.5699 27.041 76.9082 27.5015 77.1471C27.962 77.3859 28.5026 77.5052 29.1166 77.5052C29.5438 77.5052 29.9442 77.439 30.3046 77.2996C30.6717 77.1603 31.0587 76.9148 31.4791 76.5565L32.5203 78.0094C32.2133 78.2947 31.8596 78.5402 31.4592 78.7459C31.0587 78.9515 30.6383 79.1107 30.1978 79.2235C29.7573 79.3363 29.3235 79.396 28.8963 79.396Z" fill="#2B2D2F"></path>
<path d="M40.876 79.2236V70.1082H42.9649L43.0116 73.0074L42.718 72.3505C42.8515 71.8993 43.0784 71.4881 43.3854 71.1166C43.6924 70.7451 44.0595 70.4531 44.4666 70.2408C44.8803 70.0219 45.3074 69.9158 45.7546 69.9158C45.9548 69.9158 46.1417 69.9357 46.3219 69.9622C46.5021 69.9954 46.6489 70.0418 46.769 70.0883L46.2085 72.4036C46.0683 72.3373 45.9081 72.2842 45.7279 72.2444C45.5411 72.1979 45.3608 72.1781 45.174 72.1781C44.8803 72.1781 44.6 72.2312 44.3397 72.344C44.0794 72.4501 43.8526 72.6027 43.6524 72.8017C43.4588 72.9941 43.3053 73.2263 43.1918 73.4851C43.0784 73.7504 43.0183 74.0356 43.0183 74.3474V79.2236H40.876Z" fill="#2B2D2F"></path>
<path d="M57.0202 79.2236L53.9302 70.1082L56.1192 70.0949L58.1748 76.6031L57.7811 76.5567L60.0302 71.4882H61.2916L63.5941 76.5766L63.1403 76.6098L65.2092 70.1082H67.3982L64.2948 79.2236H62.7865L60.4173 73.7371L60.7577 73.777L58.5219 79.2236H57.0202Z" fill="#2B2D2F"></path>
<path d="M75.1133 79.2234V70.108H77.2424V79.2234H75.1133ZM76.1612 68.1642C75.7274 68.1642 75.3937 68.0581 75.1534 67.8458C74.9198 67.6269 74.7997 67.3282 74.7997 66.9368C74.7997 66.5719 74.9198 66.2733 75.1601 66.0478C75.407 65.8222 75.7407 65.7096 76.1612 65.7096C76.5883 65.7096 76.9153 65.8157 77.1556 66.028C77.3959 66.2403 77.5093 66.5454 77.5093 66.9368C77.5093 67.3017 77.3892 67.5937 77.1489 67.8259C76.9087 68.0514 76.575 68.1642 76.1612 68.1642Z" fill="#2B2D2F"></path>
<path d="M88.8617 79.3961C88.0542 79.3961 87.3334 79.2633 86.6927 78.9913C86.0453 78.7193 85.5247 78.3281 85.111 77.8172L86.4924 76.643C86.8462 77.0277 87.2332 77.313 87.6604 77.4855C88.0875 77.658 88.5414 77.7442 89.0219 77.7442C89.2088 77.7442 89.3822 77.7242 89.5424 77.6778C89.7026 77.6313 89.8428 77.5651 89.9563 77.4722C90.0764 77.386 90.1698 77.2732 90.2298 77.1538C90.2899 77.0278 90.3233 76.8884 90.3233 76.7358C90.3233 76.4571 90.2165 76.2382 90.0029 76.0723C89.8962 75.9994 89.7159 75.9198 89.469 75.827C89.222 75.7274 88.9017 75.6344 88.508 75.5349C87.8806 75.3691 87.3534 75.1834 86.9396 74.9711C86.5192 74.7588 86.1855 74.5199 85.9452 74.2546C85.7517 74.029 85.6115 73.7835 85.5181 73.5115C85.418 73.2395 85.3712 72.9344 85.3712 72.6027C85.3712 72.0785 85.5247 71.6141 85.8317 71.2094C86.1454 70.8047 86.5525 70.4863 87.0664 70.2607C87.5803 70.0286 88.1543 69.9158 88.7816 69.9158C89.2355 69.9158 89.6826 69.9755 90.1164 70.0883C90.5502 70.2077 90.9573 70.3669 91.331 70.5858C91.6981 70.7981 92.0185 71.0568 92.2855 71.3553L91.1108 72.6491C90.8973 72.4368 90.657 72.251 90.3967 72.0852C90.1364 71.9259 89.8695 71.7932 89.6025 71.7003C89.3356 71.6074 89.0886 71.561 88.8617 71.561C88.6481 71.561 88.4479 71.581 88.2744 71.6208C88.0942 71.6606 87.9474 71.7203 87.8272 71.8066C87.7138 71.8862 87.6203 71.9923 87.5602 72.1117C87.5002 72.2311 87.4668 72.3704 87.4668 72.5163C87.4735 72.6623 87.5135 72.7884 87.5736 72.9144C87.6403 73.0339 87.7271 73.14 87.8473 73.2262C87.9674 73.3058 88.1542 73.3988 88.4079 73.4983C88.6681 73.5979 88.9952 73.6973 89.4023 73.7968C89.9762 73.9494 90.4501 74.1153 90.8305 74.2944C91.2109 74.4802 91.5112 74.6924 91.7381 74.9246C91.9584 75.1369 92.1119 75.3825 92.2054 75.6611C92.2921 75.9397 92.3388 76.2515 92.3388 76.5898C92.3388 77.1338 92.1853 77.6115 91.8783 78.036C91.5713 78.4606 91.1575 78.799 90.6302 79.0378C90.1097 79.2767 89.5158 79.3961 88.8617 79.3961Z" fill="#2B2D2F"></path>
</g>
<defs>
<clipPath id="SvgjsClipPath1006">
<rect width="100" height="74" fill="white" transform="translate(0 13)"></rect>
</clipPath>
</defs>
</svg><style>@media (prefers-color-scheme: light) { :root { filter: none; } }
@media (prefers-color-scheme: dark) { :root { filter: none; } }
</style></svg>